<?xml version="1.0" encoding="UTF-8"?><svg xmlns="http://www.w3.org/2000/svg" viewBox="0 0 441.79 210.45"><defs><style>.cls-1{fill:none;stroke:#8d0aff;stroke-miterlimit:10;stroke-width:5px;}.cls-2{fill:#e6ccfd;}.cls-3{fill:#8d0aff;}</style></defs><g id="Layer_4"><path class="cls-3" d="m127.82,187.77h5.57c4.78,0,7.49,3.36,7.49,8.4,0,4.68-2.47,8.4-7.49,8.4h-5.57v-16.8Zm5.35,14.91c3.86,0,5.54-3,5.54-6.5s-1.68-6.48-5.54-6.48h-3.26v12.98h3.26Z"/><path class="cls-3" d="m148.31,198.45c0-3.55,1.75-6.36,5.54-6.36,3.46,0,5.3,2.57,5.3,5.98v.98h-8.74c0,2.33,1.18,3.94,3.46,3.94,1.61,0,2.76-.67,3.1-1.97h2.02c-.34,2.26-2.5,3.77-5.11,3.77-3.62,0-5.57-2.74-5.57-6.34Zm8.76-1.08c0-1.94-1.03-3.48-3.22-3.48-2.3,0-3.34,1.56-3.41,3.48h6.62Z"/><path class="cls-3" d="m165.28,192.55v-.24h2.09l3.77,9.91h.1l3.62-9.91h2.09v.24l-4.75,12.03h-2.09l-4.82-12.03Z"/><path class="cls-3" d="m183.06,198.45c0-3.55,1.75-6.36,5.54-6.36,3.46,0,5.3,2.57,5.3,5.98v.98h-8.74c0,2.33,1.18,3.94,3.46,3.94,1.61,0,2.76-.67,3.1-1.97h2.02c-.34,2.26-2.5,3.77-5.11,3.77-3.62,0-5.57-2.74-5.57-6.34Zm8.76-1.08c0-1.94-1.03-3.48-3.22-3.48-2.3,0-3.34,1.56-3.41,3.48h6.62Z"/><path class="cls-3" d="m202.07,186.81h2.02v17.76h-2.02v-17.76Z"/><path class="cls-3" d="m212.01,198.45c0-3.53,1.75-6.36,5.54-6.36s5.55,2.83,5.55,6.36-1.7,6.34-5.55,6.34-5.54-2.81-5.54-6.34Zm9.05,0c0-2.64-1.01-4.56-3.5-4.56s-3.5,1.94-3.5,4.56,1.03,4.54,3.5,4.54,3.5-1.9,3.5-4.54Z"/><path class="cls-3" d="m231.26,192.31h1.75l.26,1.7h.1c.65-1.08,1.87-1.92,3.7-1.92,3.22,0,5.18,2.4,5.21,6.36-.02,3.62-1.75,6.34-5.21,6.34-1.82,0-3.05-.84-3.7-1.92h-.1v7.2h-2.02v-17.76Zm8.98,6.14c0-2.47-.96-4.56-3.5-4.56s-3.5,2.11-3.5,4.56,1.06,4.54,3.5,4.54,3.5-2.09,3.5-4.54Z"/><path class="cls-3" d="m268.1,196.61v7.97h-2.02v-7.66c0-1.87-.84-3.02-2.71-3.02s-3.07,1.44-3.07,3.91v6.77h-2.02v-7.66c0-1.87-.84-3.02-2.71-3.02s-3.12,1.44-3.12,3.91v6.77h-2.02v-12.26h1.75l.17,1.92h.1c.65-1.25,1.78-2.14,3.67-2.14,1.78,0,3.05.79,3.7,2.14h.1c.65-1.25,1.9-2.14,3.96-2.14,2.71,0,4.22,1.75,4.22,4.51Z"/><path class="cls-3" d="m276.02,198.45c0-3.55,1.75-6.36,5.54-6.36,3.46,0,5.3,2.57,5.3,5.98v.98h-8.74c0,2.33,1.18,3.94,3.46,3.94,1.61,0,2.76-.67,3.1-1.97h2.02c-.34,2.26-2.5,3.77-5.11,3.77-3.62,0-5.57-2.74-5.57-6.34Zm8.76-1.08c0-1.94-1.03-3.48-3.22-3.48-2.3,0-3.34,1.56-3.41,3.48h6.62Z"/><path class="cls-3" d="m295.02,192.31h1.75l.17,1.92h.1c.65-1.25,1.9-2.14,3.79-2.14,2.71,0,4.3,1.7,4.3,4.51v7.97h-2.02v-7.66c0-1.92-.89-3.02-2.83-3.02-2.04,0-3.24,1.44-3.24,3.91v6.77h-2.02v-12.26Z"/><path class="cls-3" d="m314.85,201.5v-7.49h-2.04v-1.7h2.09v-2.62l1.73-.67h.24v3.29h3v1.7h-3v7.32c0,1.18.5,1.68,1.61,1.68.58,0,.94-.07,1.2-.14h.24v1.73c-.38.1-1.06.19-1.82.19-2.42,0-3.24-1.25-3.24-3.29Z"/></g><g id="Layer_2"><path class="cls-3" d="m105.66,19.3h.39c4.53,0,8.7,2.46,10.89,6.42l42.68,77.22h.78l42.68-77.22c2.19-3.96,6.36-6.42,10.89-6.42h0c6.87,0,12.44,5.57,12.44,12.44v124.69h-16.26V46.53h-.78l-48.58,86.39h-1.96l-48.58-86.98h-.78l-20,160.49h-16.26L93.21,31.74c0-6.87,5.57-12.44,12.44-12.44Z"/><path class="cls-1" d="m226.43,156.43c0-32.5,20.36-58.25,20.36-137.46"/></g><g id="Layer_5"><path class="cls-2" d="m20.38,89.23c9.47,1.28,14.44,7.38,14.44,17.97v27.28c0,11.56,3.85,16.85,16.05,16.85h3.69v10.43h-4.33c-19.9,0-27.28-8.67-27.28-26.8v-25.2c0-10.27-6.42-14.12-14.93-14.44v-12.84c8.51-.32,14.93-4.17,14.93-14.44v-25.2c0-18.14,7.38-26.8,27.28-26.8h4.33v10.43h-3.69c-12.2,0-16.05,5.3-16.05,16.85v27.28c0,10.59-4.98,16.69-14.44,17.98v.64Z"/></g><g id="Layer_6"><path class="cls-2" d="m421.4,86.5c-9.47-1.28-14.44-7.38-14.44-17.97v-27.28c0-11.56-3.85-16.85-16.05-16.85h-3.69v-10.43h4.33c19.9,0,27.28,8.67,27.28,26.8v25.2c0,10.27,6.42,14.12,14.93,14.44v12.84c-8.51.32-14.93,4.17-14.93,14.44v25.2c0,18.14-7.38,26.8-27.28,26.8h-4.33v-10.43h3.69c12.2,0,16.05-5.3,16.05-16.85v-27.28c0-10.59,4.97-16.69,14.44-17.98v-.64Z"/></g><g id="Layer_3"><path class="cls-3" d="m353.67,31.07l20,175.69h-16.73s-20-159.05-20-159.05h-.79s-66.89,103.52-66.89,103.52c-2.23,3.45-6.05,5.53-10.16,5.53h-.22c-6.68,0-12.1-5.42-12.1-12.1V18.97h16.93v109.64s.79,0,.79,0l66.9-104.08c2.23-3.46,6.06-5.56,10.18-5.56h0c6.68,0,12.1,5.42,12.1,12.1Z"/></g></svg>