<?xml version="1.0" encoding="UTF-8"?><svg xmlns="http://www.w3.org/2000/svg" viewBox="0 0 423.66 133.81"><defs><style>.cls-1{fill:#fff;}.cls-2{fill:none;stroke:#fff;stroke-miterlimit:10;stroke-width:5px;}</style></defs><g id="Layer_4"><path class="cls-1" d="m119.95,116.11h4.35c3.73,0,5.85,2.62,5.85,6.56,0,3.65-1.93,6.56-5.85,6.56h-4.35v-13.12Zm4.18,11.64c3.02,0,4.33-2.34,4.33-5.08s-1.31-5.06-4.33-5.06h-2.55v10.14h2.55Z"/><path class="cls-1" d="m135.95,124.44c0-2.77,1.37-4.97,4.33-4.97,2.7,0,4.14,2.01,4.14,4.67v.77h-6.82c0,1.82.92,3.07,2.7,3.07,1.26,0,2.15-.53,2.42-1.54h1.57c-.26,1.76-1.95,2.94-3.99,2.94-2.83,0-4.35-2.14-4.35-4.95Zm6.84-.84c0-1.52-.81-2.72-2.51-2.72-1.8,0-2.6,1.22-2.66,2.72h5.17Z"/><path class="cls-1" d="m149.2,119.83v-.19h1.63l2.94,7.74h.08l2.83-7.74h1.63v.19l-3.71,9.39h-1.63l-3.77-9.39Z"/><path class="cls-1" d="m163.09,124.44c0-2.77,1.37-4.97,4.33-4.97,2.7,0,4.14,2.01,4.14,4.67v.77h-6.82c0,1.82.92,3.07,2.7,3.07,1.26,0,2.15-.53,2.42-1.54h1.57c-.26,1.76-1.95,2.94-3.99,2.94-2.83,0-4.35-2.14-4.35-4.95Zm6.84-.84c0-1.52-.81-2.72-2.51-2.72-1.8,0-2.6,1.22-2.66,2.72h5.17Z"/><path class="cls-1" d="m177.93,115.36h1.57v13.87h-1.57v-13.87Z"/><path class="cls-1" d="m185.68,124.44c0-2.75,1.37-4.97,4.33-4.97s4.33,2.21,4.33,4.97-1.33,4.95-4.33,4.95-4.33-2.19-4.33-4.95Zm7.06,0c0-2.06-.79-3.56-2.74-3.56s-2.74,1.52-2.74,3.56.81,3.54,2.74,3.54,2.74-1.48,2.74-3.54Z"/><path class="cls-1" d="m200.71,119.65h1.37l.21,1.33h.08c.51-.84,1.46-1.5,2.89-1.5,2.51,0,4.05,1.87,4.07,4.97-.02,2.83-1.37,4.95-4.07,4.95-1.42,0-2.38-.66-2.89-1.5h-.08v5.62h-1.57v-13.87Zm7.01,4.8c0-1.93-.75-3.56-2.74-3.56s-2.74,1.65-2.74,3.56.82,3.54,2.74,3.54,2.74-1.63,2.74-3.54Z"/><path class="cls-1" d="m229.47,123v6.22h-1.57v-5.98c0-1.46-.66-2.36-2.12-2.36s-2.4,1.12-2.4,3.05v5.28h-1.57v-5.98c0-1.46-.66-2.36-2.12-2.36s-2.44,1.12-2.44,3.05v5.28h-1.57v-9.58h1.37l.13,1.5h.08c.51-.97,1.39-1.67,2.87-1.67,1.39,0,2.38.62,2.89,1.67h.08c.51-.97,1.48-1.67,3.09-1.67,2.12,0,3.3,1.37,3.3,3.52Z"/><path class="cls-1" d="m235.66,124.44c0-2.77,1.37-4.97,4.33-4.97,2.7,0,4.14,2.01,4.14,4.67v.77h-6.82c0,1.82.92,3.07,2.7,3.07,1.25,0,2.15-.53,2.42-1.54h1.57c-.26,1.76-1.95,2.94-3.99,2.94-2.83,0-4.35-2.14-4.35-4.95Zm6.84-.84c0-1.52-.81-2.72-2.51-2.72-1.8,0-2.6,1.22-2.66,2.72h5.17Z"/><path class="cls-1" d="m250.5,119.65h1.37l.13,1.5h.08c.51-.97,1.48-1.67,2.96-1.67,2.12,0,3.35,1.33,3.35,3.52v6.22h-1.57v-5.98c0-1.5-.69-2.36-2.21-2.36-1.59,0-2.53,1.12-2.53,3.05v5.28h-1.57v-9.58Z"/><path class="cls-1" d="m265.98,126.82v-5.85h-1.59v-1.33h1.63v-2.04l1.35-.53h.19v2.57h2.34v1.33h-2.34v5.71c0,.92.39,1.31,1.26,1.31.45,0,.73-.06.94-.11h.19v1.35c-.3.08-.82.15-1.42.15-1.89,0-2.53-.97-2.53-2.57Z"/></g><g id="Layer_2"><path class="cls-1" d="m104.36.26h.31c3.54,0,6.79,1.92,8.5,5.02l33.32,60.29h.61L180.43,5.27c1.71-3.1,4.97-5.02,8.5-5.02h0c5.37,0,9.72,4.35,9.72,9.72v97.35h-12.69V21.52h-.61l-37.93,67.45h-1.53L107.95,21.06h-.61l-5.62,95.3h-12.69l5.62-106.39c0-5.37,4.35-9.72,9.72-9.72Z"/><path class="cls-2" d="m198.65,107.32c0-25.38,15.89-45.48,15.89-107.32"/></g><g id="Layer_5"><path class="cls-1" d="m.03,56.42l.71-8.11c.22-2.47,1.72-4.63,3.95-5.71l62.43-10.91c4.9-2.35,10.49,1.52,10.02,6.93h0c-.22,2.47-1.72,4.64-3.96,5.71l-58.65,8.9-.06.71,56.21,18.95c2.02,1.44,3.13,3.84,2.91,6.31h0c-.47,5.41-6.65,8.25-11.07,5.08L2.92,62.72C.91,61.28-.19,58.88.03,56.42Z"/></g><g id="Layer_7"><path class="cls-1" d="m321.03,106.12l9.45-96.42c.17-1.76,1.41-3.23,3.11-3.7l.12-.03c2.89-.8,5.68,1.55,5.39,4.54l-9.57,96.45c-.17,1.76-1.41,3.22-3.11,3.69h0c-2.89.8-5.68-1.55-5.39-4.53Z"/></g><g id="Layer_6"><path class="cls-1" d="m423.64,60.2l-.71,8.11c-.22,2.47-1.72,4.63-3.95,5.71l-62.43,10.91c-4.9,2.35-10.49-1.52-10.02-6.93h0c.22-2.47,1.72-4.65,3.96-5.71l58.65-8.9.06-.71-56.21-18.95c-2.02-1.44-3.13-3.84-2.91-6.32h0c.47-5.41,6.65-8.25,11.07-5.08l59.59,21.58c2.01,1.44,3.11,3.84,2.9,6.3Z"/></g><g id="Layer_3"><path class="cls-1" d="m298,9.44l5.62,107.17h-13.06s-5.62-94.18-5.62-94.18h-.61s-52.23,80.82-52.23,80.82c-1.74,2.69-4.73,4.32-7.93,4.32h-.17c-5.22,0-9.44-4.23-9.44-9.44V0h13.22v85.6s.61,0,.61,0L280.61,4.34C282.35,1.63,285.34,0,288.55,0h0c5.22,0,9.44,4.23,9.44,9.44Z"/></g></svg>